<?xml version="1.0" encoding="utf-8"?>
<!-- Generator: Adobe Illustrator 25.1.0, SVG Export Plug-In . SVG Version: 6.00 Build 0)  -->
<svg version="1.1" id="Capa_1" xmlns="http://www.w3.org/2000/svg" xmlns:xlink="http://www.w3.org/1999/xlink" x="0px" y="0px"
	 viewBox="0 0 198.2 198.2" style="enable-background:new 0 0 198.2 198.2;" xml:space="preserve">
<style type="text/css">
	.st0{fill:#D4AF37;}
</style>
<g>
	<path class="st0" d="M60.6,62.1l38.2,120.1c0.1,0.4,0.7,0.5,0.9,0.1L179,16.6c0.2-0.4-0.2-0.9-0.6-0.7L60.9,61.5
		C60.7,61.5,60.5,61.8,60.6,62.1z"/>
	<path class="st0" d="M133.7,59.2l-119.1-41c-0.4-0.2-0.8,0.3-0.6,0.7l85.5,162.5c0.2,0.4,0.8,0.4,0.9-0.1L134,59.8
		C134.1,59.6,133.9,59.3,133.7,59.2z"/>
	<g>
		<path d="M-0.5,14.6l94.4,178.2c1.3,2.5,4,4,6.8,4l0,0c2.8,0,5.4-1.7,6.6-4.2l88.5-181.9c1.4-2.7,0.9-6-1.1-8.3s-5.3-3.1-8.1-2.1
			L97.9,32.1L8.2,3.5C7.4,3.2,6.6,3.1,5.8,3.1l-0.1,0c-4.1,0.2-7.3,3.5-7.3,7.6C-1.6,12.1-1.1,13.5-0.5,14.6z M103,46.2l71.3-25.5
			l-69.2,142.2L103,46.2z M93,46.3l2,116.7L21.1,23.4L93,46.3z"/>
	</g>
</g>
</svg>
