<?xml version="1.0" encoding="utf-8"?>
<!-- Generator: Adobe Illustrator 25.1.0, SVG Export Plug-In . SVG Version: 6.00 Build 0)  -->
<svg version="1.1" id="Capa_1" xmlns="http://www.w3.org/2000/svg" xmlns:xlink="http://www.w3.org/1999/xlink" x="0px" y="0px"
	 viewBox="0 0 198.2 198.2" style="enable-background:new 0 0 198.2 198.2;" xml:space="preserve">
<style type="text/css">
	.st0{fill:#D4AF37;}
</style>
<g>
	<path class="st0" d="M136.9,136.9L100.8,16.2c-0.1-0.4-0.7-0.5-0.9-0.1L17.7,180.3c-0.2,0.4,0.2,0.9,0.6,0.7l118.3-43.5
		C136.8,137.5,137,137.2,136.9,136.9z"/>
	<path class="st0" d="M63.8,138.5l118.4,43.1c0.4,0.2,0.8-0.3,0.6-0.7L100.1,16.9c-0.2-0.4-0.8-0.4-0.9,0.1L63.5,137.9
		C63.4,138.1,63.6,138.4,63.8,138.5z"/>
	<g>
		<path d="M197.2,185.4L105.9,5.6c-1.3-2.5-3.9-4.1-6.7-4.1c0,0,0,0,0,0c-2.8,0-5.4,1.6-6.7,4.1L0.8,185.9c-1.4,2.7-1,6,1,8.3
			c2,2.3,5.2,3.2,8.1,2.2l89.2-30.2l89.2,30.2c0.8,0.3,1.6,0.4,2.4,0.4c0,0,0.1,0,0.1,0c4.1-0.1,7.4-3.4,7.4-7.5
			C198.2,187.9,197.8,186.5,197.2,185.4z M94.2,152l-71.7,24.3L94.2,35.3V152z M104.2,152.1V35.4l71.5,140.9L104.2,152.1z"/>
	</g>
</g>
</svg>
