<?xml version="1.0" encoding="utf-8"?>
<!-- Generator: Adobe Illustrator 25.1.0, SVG Export Plug-In . SVG Version: 6.00 Build 0)  -->
<svg version="1.1" id="Capa_1" xmlns="http://www.w3.org/2000/svg" xmlns:xlink="http://www.w3.org/1999/xlink" x="0px" y="0px"
	 viewBox="0 0 198.2 198.2" style="enable-background:new 0 0 198.2 198.2;" xml:space="preserve">
<style type="text/css">
	.st0{fill:#D4AF37;}
</style>
<g>
	<path class="st0" d="M58.9,137.7l120.7-36.1c0.4-0.1,0.5-0.7,0.1-0.9L15.5,18.5c-0.4-0.2-0.9,0.2-0.7,0.6l43.5,118.3
		C58.3,137.6,58.6,137.8,58.9,137.7z"/>
	<path class="st0" d="M57.3,64.6L14.2,183c-0.2,0.4,0.3,0.8,0.7,0.6l164-82.7c0.4-0.2,0.4-0.8-0.1-0.9L57.9,64.3
		C57.7,64.2,57.4,64.4,57.3,64.6z"/>
	<g>
		<path d="M10.4,198l179.8-91.3c2.5-1.3,4.1-3.9,4.1-6.7l0,0c0-2.8-1.6-5.4-4.1-6.7L9.9,1.6c-2.7-1.4-6-1-8.3,1s-3.2,5.2-2.2,8.1
			l30.2,89.2l-30.2,89.2c-0.3,0.8-0.4,1.6-0.4,2.4v0.1c0.1,4.1,3.4,7.4,7.5,7.4C7.9,199,9.3,198.6,10.4,198z M43.8,95L19.5,23.3
			l141,71.7H43.8z M43.7,105h116.7L19.5,176.5L43.7,105z"/>
	</g>
</g>
</svg>
