<?xml version="1.0" encoding="utf-8"?>
<!-- Generator: Adobe Illustrator 25.1.0, SVG Export Plug-In . SVG Version: 6.00 Build 0)  -->
<svg version="1.1" id="Capa_1" xmlns="http://www.w3.org/2000/svg" xmlns:xlink="http://www.w3.org/1999/xlink" x="0px" y="0px"
	 viewBox="0 0 198.2 198.2" style="enable-background:new 0 0 198.2 198.2;" xml:space="preserve">
<style type="text/css">
	.st0{fill:#D4AF37;}
</style>
<g>
	<path class="st0" d="M134.4,62.1L13.7,98.2c-0.4,0.1-0.5,0.7-0.1,0.9l164.2,82.2c0.4,0.2,0.9-0.2,0.7-0.6L135,62.4
		C135,62.2,134.7,62,134.4,62.1z"/>
	<path class="st0" d="M136,135.2l43.1-118.4c0.2-0.4-0.3-0.8-0.7-0.6l-164,82.7c-0.4,0.2-0.4,0.8,0.1,0.9l120.9,35.7
		C135.6,135.6,135.9,135.4,136,135.2z"/>
	<g>
		<path d="M182.9,1.8L3.1,93.1C0.6,94.4-1,97-1,99.8l0,0c0,2.8,1.6,5.4,4.1,6.7l180.3,91.7c2.7,1.4,6,1,8.3-1s3.2-5.2,2.2-8.1
			l-30.2-89.2l30.2-89.2c0.3-0.8,0.4-1.6,0.4-2.4V8.2c-0.1-4.1-3.4-7.4-7.5-7.4C185.4,0.8,184,1.2,182.9,1.8z M149.5,104.8
			l24.3,71.7l-141-71.7H149.5z M149.6,94.8H32.9l140.9-71.5L149.6,94.8z"/>
	</g>
</g>
</svg>
