<?xml version="1.0" encoding="utf-8"?>
<!-- Generator: Adobe Illustrator 25.1.0, SVG Export Plug-In . SVG Version: 6.00 Build 0)  -->
<svg version="1.1" id="Capa_1" xmlns="http://www.w3.org/2000/svg" xmlns:xlink="http://www.w3.org/1999/xlink" x="0px" y="0px"
	 viewBox="0 0 480.3 480.3" style="enable-background:new 0 0 480.3 480.3;" xml:space="preserve">
<style type="text/css">
	.st0{fill:#99DD66;stroke:#99DD66;stroke-width:22;stroke-miterlimit:10;}
</style>
<path class="st0" d="M254.1,234.1V13.5c0-7.5-6-13.5-13.5-13.5s-13.5,6-13.5,13.5v220.6c-31.3,6.3-55,34-55,67.2s23.7,60.9,55,67.2
	v98.2c0,7.5,6,13.5,13.5,13.5s13.5-6,13.5-13.5v-98.2c31.3-6.3,55-34,55-67.2C309.1,268.2,285.5,240.4,254.1,234.1z M240.6,342.8
	c-22.9,0-41.5-18.6-41.5-41.5s18.6-41.5,41.5-41.5s41.5,18.6,41.5,41.5S263.5,342.8,240.6,342.8z"/>
<path class="st0" d="M88.8,120.9V13.5C88.8,6,82.8,0,75.3,0S61.8,6,61.8,13.5v107.4c-31.3,6.3-55,34-55,67.2s23.7,60.9,55,67.2
	v211.4c0,7.5,6,13.5,13.5,13.5s13.5-6,13.5-13.5V255.2c31.3-6.3,55-34,55-67.2S120.2,127.2,88.8,120.9z M75.3,229.6
	c-22.9,0-41.5-18.6-41.5-41.5s18.6-41.5,41.5-41.5s41.5,18.6,41.5,41.5S98.2,229.6,75.3,229.6z"/>
<path class="st0" d="M418.5,120.9V13.5C418.5,6,412.5,0,405,0s-13.5,6-13.5,13.5v107.4c-31.3,6.3-55,34-55,67.2s23.7,60.9,55,67.2
	v211.5c0,7.5,6,13.5,13.5,13.5s13.5-6,13.5-13.5V255.2c31.3-6.3,55-34,55-67.2S449.9,127.2,418.5,120.9z M405,229.6
	c-22.9,0-41.5-18.6-41.5-41.5s18.6-41.5,41.5-41.5s41.5,18.6,41.5,41.5S427.9,229.6,405,229.6z"/>
</svg>
