<?xml version="1.0" encoding="iso-8859-1"?>
<!-- Uploaded to: SVG Repo, www.svgrepo.com, Generator: SVG Repo Mixer Tools -->
<svg fill="#000000" height="800px" width="800px" version="1.1" id="Layer_1" xmlns="http://www.w3.org/2000/svg" xmlns:xlink="http://www.w3.org/1999/xlink" 
	 viewBox="0 0 512 512" xml:space="preserve">
<g>
	<g>
		<path d="M480.831,330.665c-25.593-25.592-62.724-36.336-97.931-28.623l-34.521-34.521l105.458-105.459
			c0.011-0.011,46.179-46.179,46.179-46.179c7.683-7.683,11.914-17.934,11.914-28.861c0-10.929-4.232-21.179-11.914-28.862
			l-46.172-46.173c-7.684-7.683-17.935-11.915-28.862-11.915c-10.929,0-21.179,4.231-28.864,11.916L244.482,163.623l-34.521-34.521
			c7.715-35.204-3.03-72.338-28.623-97.93c-28.7-28.7-70.452-38.493-108.962-25.557c-2.68,0.901-4.704,3.123-5.351,5.875
			c-0.647,2.753,0.176,5.644,2.176,7.643l56.211,56.211l-10.439,39.622l-39.625,10.425l-56.21-56.209c-2-2-4.891-2.823-7.642-2.176
			c-2.752,0.646-4.975,2.669-5.877,5.349c-12.946,38.517-3.155,80.276,25.551,108.982c25.593,25.592,62.727,36.337,97.93,28.623
			l17.195,17.194c1.594,1.594,3.685,2.393,5.775,2.393c2.09,0,4.181-0.797,5.775-2.393c3.19-3.19,3.19-8.362,0-11.551
			l-20.437-20.437c-2.06-2.062-5.062-2.869-7.883-2.116c-30.932,8.259-64.194-0.654-86.804-23.264
			c-21.015-21.015-30.048-50.3-25.007-78.926l49.399,49.399c2.054,2.054,5.045,2.862,7.853,2.124l48.768-12.83
			c2.847-0.749,5.071-2.972,5.82-5.819l12.286-46.633l31.071-31.071c20.283,22.471,28.003,54.035,20.137,83.496
			c-0.753,2.817,0.054,5.821,2.116,7.883l37.764,37.764L48.636,359.469c-0.216,0.216-0.414,0.442-0.601,0.675
			c-0.047,0.059-0.088,0.122-0.134,0.182c-0.137,0.182-0.269,0.366-0.39,0.555c-0.046,0.072-0.087,0.146-0.13,0.22
			c-0.111,0.187-0.215,0.377-0.308,0.571c-0.038,0.08-0.075,0.159-0.111,0.24c-0.088,0.198-0.169,0.4-0.241,0.603
			c-0.017,0.05-0.042,0.098-0.059,0.148L0.489,501.18c-0.978,2.935-0.215,6.171,1.973,8.359c1.557,1.557,3.644,2.393,5.776,2.393
			c0.864,0,1.736-0.137,2.582-0.419l138.52-46.173c0.051-0.017,0.099-0.042,0.15-0.06c0.203-0.072,0.402-0.151,0.599-0.24
			c0.082-0.036,0.161-0.073,0.242-0.112c0.193-0.094,0.382-0.197,0.568-0.307c0.074-0.044,0.148-0.085,0.221-0.131
			c0.189-0.12,0.374-0.252,0.554-0.389c0.061-0.046,0.124-0.087,0.183-0.135c0.233-0.186,0.46-0.386,0.675-0.601L336.828,279.07
			l37.764,37.764c2.065,2.063,5.069,2.869,7.883,2.116c30.935-8.258,64.195,0.655,86.804,23.264
			c21.008,21.009,30.043,50.285,25.01,78.904l-49.398-49.399c-2.055-2.055-5.049-2.863-7.858-2.123l-48.767,12.848
			c-2.846,0.749-5.069,2.973-5.818,5.82l-12.268,46.632l-31.083,31.083c-20.289-22.472-28.013-54.039-20.146-83.504
			c0.751-2.817-0.054-5.821-2.115-7.883l-20.439-20.438c-3.191-3.19-8.362-3.19-11.552,0c-3.19,3.19-3.19,8.362,0,11.551
			l17.195,17.195c-7.715,35.204,3.03,72.339,28.622,97.93c0.669,0.669,1.344,1.324,2.027,1.972c0.169,0.205,0.347,0.404,0.539,0.596
			c0.325,0.325,0.673,0.607,1.035,0.865c19.847,18.112,45.202,27.737,71.236,27.736c11.386,0,22.906-1.842,34.147-5.62
			c2.68-0.901,4.703-3.123,5.349-5.877c0.646-2.752-0.177-5.644-2.176-7.642l-56.21-56.21l10.425-39.625l39.624-10.439l56.21,56.211
			c2.001,2,4.896,2.825,7.644,2.176c2.752-0.647,4.975-2.67,5.876-5.352C519.322,401.116,509.53,359.364,480.831,330.665z
			 M134.505,61.337L90.882,17.712c24.785-4.36,50.056,1.839,70.028,17.22L134.505,61.337z M407.67,23.537
			c4.598-4.598,10.746-7.13,17.312-7.13c6.564,0,12.713,2.532,17.311,7.13l46.172,46.173c9.546,9.546,9.546,25.077,0,34.622
			l-40.397,40.397l-80.795-80.795L407.67,23.537z M21.153,490.849l13.742-41.224l27.483,27.483L21.153,490.849z M79.705,471.332
			L40.67,432.298l17.311-51.933l73.656,73.656L79.705,471.332z M146.757,446.04l-80.796-80.796l258.977-258.976l34.623,34.621
			L117.895,382.556c-3.19,3.19-3.19,8.362,0,11.551c1.594,1.594,3.685,2.393,5.775,2.393c2.09,0,4.181-0.797,5.775-2.393
			l241.665-241.664l17.311,17.31c1.595,1.594,3.687,2.393,5.776,2.393c2.09,0,4.181-0.797,5.776-2.393
			c3.19-3.19,3.19-8.362,0-11.551l-23.085-23.085c-0.003-0.003-40.4-40.4-40.4-40.4l19.231-19.231l80.795,80.795L146.757,446.04z
			 M421.142,494.288c-24.785,4.362-50.061-1.83-70.039-17.209l26.414-26.414L421.142,494.288z"/>
	</g>
</g>
<g>
	<g>
		<path d="M183.615,148.961c-3.19-3.19-8.362-3.19-11.551,0l-23.102,23.102c-3.19,3.19-3.19,8.362,0,11.551
			c1.594,1.594,3.685,2.393,5.775,2.393s4.181-0.797,5.775-2.393l23.102-23.102C186.805,157.323,186.805,152.151,183.615,148.961z"
			/>
	</g>
</g>
<g>
	<g>
		<path d="M363.041,328.389c-3.191-3.19-8.362-3.19-11.552,0l-23.102,23.102c-3.19,3.19-3.19,8.362,0,11.551
			c1.596,1.594,3.687,2.393,5.776,2.393s4.18-0.798,5.775-2.393l23.102-23.102C366.231,336.75,366.231,331.578,363.041,328.389z"/>
	</g>
</g>
</svg>