<?xml version="1.0" encoding="utf-8"?>
<!-- Uploaded to: SVG Repo, www.svgrepo.com, Generator: SVG Repo Mixer Tools -->
<svg fill="#000000" width="800px" height="800px" viewBox="0 0 32 32" version="1.1" xmlns="http://www.w3.org/2000/svg">
<title>heat</title>
<path d="M7.442 15.050c-0.726-0.745-1.38-1.566-1.948-2.448l-0.037-0.062c-0.805-1.614-1.276-3.516-1.276-5.528 0-0.901 0.095-1.78 0.274-2.628l-0.015 0.082c0.008-0.052 0.012-0.111 0.012-0.172 0-0.69-0.56-1.25-1.25-1.25-0.641 0-1.17 0.483-1.242 1.105l-0.001 0.006c-0.179 0.868-0.282 1.865-0.282 2.886 0 2.465 0.599 4.79 1.658 6.838l-0.039-0.083c0.695 1.103 1.451 2.062 2.296 2.934l-0.005-0.005c0.597 0.626 1.157 1.301 1.67 2.013l0.039 0.056c0.993 1.53 1.584 3.402 1.584 5.411 0 1.078-0.17 2.116-0.485 3.090l0.020-0.071c-0.036 0.111-0.056 0.238-0.056 0.371 0 0.558 0.365 1.030 0.87 1.191l0.009 0.002c0.11 0.036 0.237 0.057 0.369 0.057 0.001 0 0.002 0 0.003 0h-0c0.558-0 1.030-0.366 1.191-0.87l0.002-0.009c0.374-1.129 0.589-2.429 0.589-3.779 0-2.528-0.756-4.88-2.053-6.841l0.029 0.046c-0.622-0.871-1.253-1.636-1.934-2.354l0.009 0.010zM16.897 15.11c-0.884-0.907-1.68-1.907-2.371-2.982l-0.045-0.075c-0.988-1.972-1.566-4.298-1.566-6.758 0-1.093 0.114-2.159 0.331-3.187l-0.018 0.1c0.005-0.043 0.008-0.093 0.008-0.144 0-0.69-0.56-1.25-1.25-1.25-0.632 0-1.154 0.469-1.238 1.077l-0.001 0.007c-0.214 1.031-0.336 2.215-0.336 3.428 0 2.914 0.706 5.662 1.956 8.085l-0.046-0.099c0.827 1.309 1.725 2.446 2.727 3.481l-0.005-0.006c0.722 0.758 1.401 1.576 2.023 2.438l0.047 0.069c1.217 1.877 1.941 4.171 1.941 6.635 0 1.32-0.208 2.592-0.593 3.784l0.024-0.087c-0.036 0.111-0.056 0.238-0.056 0.371 0 0.558 0.365 1.030 0.87 1.191l0.009 0.002c0.11 0.036 0.237 0.057 0.368 0.057 0.001 0 0.002 0 0.003 0h-0c0.558-0 1.030-0.366 1.191-0.87l0.002-0.009c0.441-1.333 0.695-2.867 0.695-4.461 0-2.982-0.89-5.755-2.418-8.070l0.034 0.055c-0.739-1.034-1.489-1.941-2.297-2.794l0.011 0.012zM28.24 17.594c-0.621-0.87-1.253-1.634-1.933-2.351l0.009 0.009c-0.726-0.746-1.381-1.568-1.949-2.451l-0.037-0.062c-0.801-1.622-1.269-3.532-1.269-5.55 0-0.893 0.092-1.764 0.266-2.606l-0.014 0.083c0.006-0.047 0.010-0.1 0.010-0.155 0-0.635-0.474-1.16-1.087-1.24l-0.006-0.001c-0.043-0.005-0.093-0.008-0.144-0.008-0.638 0-1.165 0.472-1.252 1.087l-0.001 0.007c-0.174 0.859-0.273 1.847-0.273 2.858 0 2.474 0.595 4.808 1.651 6.868l-0.040-0.085c0.696 1.104 1.452 2.064 2.297 2.936l-0.005-0.005c0.595 0.625 1.155 1.3 1.668 2.010l0.039 0.057c0.993 1.53 1.584 3.402 1.584 5.411 0 1.078-0.17 2.116-0.484 3.089l0.020-0.071c-0.036 0.111-0.056 0.238-0.056 0.371 0 0.558 0.365 1.030 0.87 1.191l0.009 0.002c0.11 0.036 0.237 0.057 0.368 0.057 0.001 0 0.002 0 0.003 0h-0c0.558-0 1.030-0.366 1.191-0.87l0.002-0.009c0.373-1.129 0.589-2.428 0.589-3.778 0-2.528-0.755-4.88-2.053-6.842l0.029 0.046z"></path>
</svg>