<?xml version="1.0" encoding="utf-8"?>
<!-- Generator: Adobe Illustrator 25.1.0, SVG Export Plug-In . SVG Version: 6.00 Build 0)  -->
<svg version="1.1" id="Capa_1" xmlns="http://www.w3.org/2000/svg" xmlns:xlink="http://www.w3.org/1999/xlink" x="0px" y="0px"
	 viewBox="0 0 495.4 495.4" style="enable-background:new 0 0 495.4 495.4;" xml:space="preserve">
<g>
	<g>
		<g>
			<path d="M487.1,225.5L412,150.4V63.7c0-15.7-12.7-28.4-28.4-28.4c-15.7,0-28.4,12.7-28.4,28.4v29.9l-55.9-55.9
				c-27.6-27.6-75.7-27.6-103.3,0L8.3,225.5c-11.1,11.1-11.1,29.1,0,40.2s29.1,11.1,40.2,0L236.2,77.9c6.1-6.1,16.9-6.1,23,0
				l187.7,187.7c5.6,5.6,12.8,8.3,20.1,8.3c7.3,0,14.5-2.8,20.1-8.3C498.2,254.6,498.2,236.6,487.1,225.5z"/>
			<path d="M257.6,131.8c-5.5-5.5-14.3-5.5-19.7,0L72.7,296.9c-2.6,2.6-4.1,6.2-4.1,9.9v120.4c0,28.3,22.9,51.2,51.2,51.2h81.8
				V351.7h92.3v126.6h81.8c28.3,0,51.2-22.9,51.2-51.2V306.8c0-3.7-1.5-7.3-4.1-9.9L257.6,131.8z"/>
		</g>
	</g>
</g>
</svg>
