<?xml version="1.0" encoding="utf-8"?>
<!-- Generator: Adobe Illustrator 26.5.0, SVG Export Plug-In . SVG Version: 6.00 Build 0)  -->
<svg version="1.1" id="Capa_1" xmlns="http://www.w3.org/2000/svg" xmlns:xlink="http://www.w3.org/1999/xlink" x="0px" y="0px"
	 viewBox="0 0 56 56" style="enable-background:new 0 0 56 56;" xml:space="preserve">
<style type="text/css">
	.st0{stroke:#000000;stroke-miterlimit:10;}
</style>
<g>
	<path class="st0" d="M55.1,32.6l-2.8-2.9c-1.2-1.2-3.1-1.2-4.2,0L32.7,45.1l-2.1,7.8L30,53.4c-0.4,0.4-0.4,1,0,1.4l0,0l0,0
		c0.2,0.2,0.4,0.3,0.7,0.3c0.3,0,0.5-0.1,0.7-0.3l0.5-0.5l7.8-2.1l15.4-15.4C56.3,35.6,56.3,33.8,55.1,32.6z M35,45.6l10.2-10.2
		l4.2,4.2L39.2,49.9L35,45.6z M34.1,47.6l3.2,3.2L32.9,52L34.1,47.6z M53.7,35.4l-2.8,2.8L46.6,34l2.8-2.8c0.4-0.4,1-0.4,1.4,0
		l2.8,2.8C54.1,34.4,54.1,35,53.7,35.4z"/>
	<path class="st0" d="M27,12.9c-0.6,0-1,0.4-1,1s0.4,1,1,1h18c0.6,0,1-0.4,1-1s-0.4-1-1-1H27z"/>
	<path class="st0" d="M46,27.9c0-0.6-0.4-1-1-1H27c-0.6,0-1,0.4-1,1s0.4,1,1,1h18C45.6,28.9,46,28.4,46,27.9z"/>
	<path class="st0" d="M20.6,8.1c-0.4-0.4-1-0.3-1.4,0.1l-6.2,7.3l-3.8-2.9c-0.4-0.3-1.1-0.2-1.4,0.2c-0.3,0.4-0.2,1.1,0.2,1.4
		l4.6,3.4c0.2,0.1,0.4,0.2,0.6,0.2c0.3,0,0.6-0.1,0.8-0.4l6.9-8C21,9.1,21,8.5,20.6,8.1z"/>
	<path class="st0" d="M20.6,22.1c-0.4-0.4-1-0.3-1.4,0.1l-6.2,7.3l-3.8-2.9c-0.4-0.3-1.1-0.2-1.4,0.2s-0.2,1.1,0.2,1.4l4.6,3.4
		c0.2,0.1,0.4,0.2,0.6,0.2c0.3,0,0.6-0.1,0.8-0.4l6.9-8C21,23.1,21,22.5,20.6,22.1z"/>
	<path class="st0" d="M19.2,37.2l-6.2,7.3l-3.8-2.9c-0.4-0.3-1.1-0.2-1.4,0.2s-0.2,1.1,0.2,1.4l4.6,3.4c0.2,0.1,0.4,0.2,0.6,0.2
		c0.3,0,0.6-0.1,0.8-0.3l6.9-8c0.4-0.4,0.3-1-0.1-1.4C20.2,36.7,19.5,36.8,19.2,37.2z"/>
	<path class="st0" d="M25,52.9H12.2C6.6,52.9,2,48.3,2,42.7V13C2,7.4,6.6,2.9,12.2,2.9h29.6C47.4,2.9,52,7.4,52,13v11.8
		c0,0.6,0.4,1,1,1s1-0.4,1-1V13c0-6.7-5.5-12.2-12.2-12.2H12.2C5.5,0.9,0,6.3,0,13v29.6c0,6.7,5.5,12.2,12.2,12.2H25
		c0.6,0,1-0.4,1-1S25.6,52.9,25,52.9z"/>
</g>
</svg>
