<?xml version="1.0" encoding="utf-8"?>
<!-- Generator: Adobe Illustrator 27.1.1, SVG Export Plug-In . SVG Version: 6.00 Build 0)  -->
<svg version="1.1" xmlns="http://www.w3.org/2000/svg" xmlns:xlink="http://www.w3.org/1999/xlink" x="0px" y="0px"
	 viewBox="0 0 800 800" style="enable-background:new 0 0 800 800;" xml:space="preserve">
<style type="text/css">
	.st0{fill:#231F20;}
	.st1{fill:#F7A90D;}
</style>
<g id="Capa_1">
	<g>
		<path d="M100,608.9c7.1-7.1,7.1-18.5,0-25.6c-7.1-7.1-18.5-7.1-25.6,0L5.3,652.3c-7.1,7.1-7.1,18.5,0,25.6
			c3.5,3.5,8.2,5.3,12.8,5.3s9.3-1.8,12.8-5.3L100,608.9z"/>
		<path d="M157.1,640.3c-7.1-7.1-18.5-7.1-25.6,0l-96.9,96.9c-7.1,7.1-7.1,18.5,0,25.6c3.5,3.5,8.2,5.3,12.8,5.3s9.3-1.8,12.8-5.3
			l96.9-96.9C164.1,658.9,164.1,647.4,157.1,640.3z"/>
		<g>
			<g id="XMLID_00000021840628356485814270000002678239957125032611_">
				<g>
					<path class="st0" d="M788.5,24.1c18.3,66,14.8,137.4-10.3,206.6c-19.4,53.6-51.9,105.8-89.3,143.1l-56.3,56.3l-31.9,203.9
						c-0.6,3.8-2.4,7.3-5.1,10L465.3,774.5c-3.5,3.5-8.1,5.3-12.8,5.3c-2.2,0-4.4-0.4-6.6-1.2c-6.7-2.6-11.2-8.9-11.5-16.1
						L429,633.8l-32.2,32.2c-7.1,7.1-18.5,7.1-25.6,0l-18.8-18.8l-86.2,56.2c-7.2,4.7-16.6,3.7-22.7-2.4L98.9,556.5
						c-6.1-6.1-7-15.5-2.4-22.7l56.2-86.2l-18.8-18.8c-7.1-7.1-7.1-18.5,0-25.6l32.2-32.2l-128.6-5.4c-7.2-0.3-13.5-4.8-16.1-11.5
						c-2.6-6.7-1-14.3,4.1-19.4l130.4-130.4c2.7-2.7,6.2-4.5,10-5.1l203.9-31.9l56.3-56.3c37.3-37.3,89.5-69.9,143.1-89.3
						c69.2-25,140.7-28.6,206.7-10.3C782,13.2,786.8,18,788.5,24.1z M663.3,348.3c50.4-50.4,125-170,92.9-304.5
						c-134.5-32.2-254.1,42.5-304.5,92.9l-60.3,60.3c-0.1,0.1-0.3,0.3-0.4,0.4l-62.7,62.7l-25.6-25.6l23.7-23.7l-149.1,23.3
						l-97.1,97.1l120.7,5.1l50.6-50.6c7.1-7.1,18.5-7.1,25.6,0c7.1,7.1,7.1,18.5,0,25.6l-56.2,56.2c0,0-0.1,0.1-0.1,0.1l-48.6,48.6
						l16.1,16.1c0.2,0.2,0.4,0.4,0.6,0.5l76.3,76.3l218.9-218.9c7.1-7.1,18.5-7.1,25.6,0c7.1,7.1,7.1,18.5,0,25.6L290.9,534.7
						l76.3,76.3c0.2,0.2,0.4,0.4,0.6,0.6l16.1,16.1l48.6-48.5c0,0,0.1-0.1,0.1-0.1l56.2-56.2c7.1-7.1,18.5-7.1,25.6,0
						c7.1,7.1,7.1,18.5,0,25.6l-50.6,50.6l5.1,120.7l97.1-97.1l23.3-149.1l-23.7,23.7c-7.1,7.1-18.5,7.1-25.6,0
						c-7.1-7.1-7.1-18.5,0-25.6l62.9-62.9c0,0,0,0,0,0L663.3,348.3z M258.7,665.1l67.5-44l-60.8-60.8l-7.1,7.2
						c-7.1,7.1-18.5,7.1-25.6,0c-7.1-7.1-7.1-18.5,0-25.6l7.2-7.2l-60.8-60.8l-44,67.5L258.7,665.1z"/>
					<path class="st1" d="M756.2,43.8c32.2,134.5-42.5,254.1-92.9,304.5l-60.5,60.5c0,0,0,0,0,0l-62.9,62.9
						c-7.1,7.1-7.1,18.5,0,25.6c7.1,7.1,18.5,7.1,25.6,0l23.7-23.7l-23.3,149.1l-97.1,97.1l-5.1-120.7l50.6-50.6
						c7.1-7.1,7.1-18.5,0-25.6c-7.1-7.1-18.5-7.1-25.6,0L432.6,579c0,0-0.1,0.1-0.1,0.1l-48.6,48.5l-16.1-16.1
						c-0.2-0.2-0.4-0.4-0.6-0.6l-76.3-76.3l218.9-218.9c7.1-7.1,7.1-18.5,0-25.6c-7.1-7.1-18.5-7.1-25.6,0L265.3,509.1L189,432.8
						c-0.2-0.2-0.4-0.4-0.6-0.5l-16.1-16.1l48.6-48.6c0,0,0.1-0.1,0.1-0.1l56.2-56.2c7.1-7.1,7.1-18.5,0-25.6
						c-7.1-7.1-18.5-7.1-25.6,0l-50.6,50.6l-120.7-5.1l97.1-97.1l149.1-23.3l-23.7,23.7l25.6,25.6l62.7-62.7
						c0.1-0.1,0.3-0.3,0.4-0.4l60.3-60.3C502.1,86.3,621.7,11.7,756.2,43.8z"/>
				</g>
				<g>
				</g>
			</g>
		</g>
		<path d="M555.6,124.2c-16.1,16.1-24.9,37.4-24.9,60.1c0,22.7,8.8,44,24.9,60.1c16.6,16.6,38.3,24.9,60.1,24.9s43.5-8.3,60.1-24.9
			c16.1-16.1,24.9-37.4,24.9-60.1c0-22.7-8.8-44-24.9-60.1C642.6,91.1,588.7,91.1,555.6,124.2z M650.2,218.8c-19,19-50,19-69,0
			c-9.2-9.2-14.3-21.5-14.3-34.5c0-13,5.1-25.3,14.3-34.5c9.5-9.5,22-14.3,34.5-14.3c12.5,0,25,4.8,34.5,14.3
			c9.2,9.2,14.3,21.5,14.3,34.5C664.5,197.4,659.4,209.6,650.2,218.8z"/>
		<path d="M191.1,700l-69.1,69.1c-7.1,7.1-7.1,18.5,0,25.6c3.5,3.5,8.2,5.3,12.8,5.3c4.6,0,9.3-1.8,12.8-5.3l69.1-69.1
			c7.1-7.1,7.1-18.5,0-25.6C209.7,692.9,198.2,692.9,191.1,700z"/>
	</g>
</g>
<g id="Layer_2">
</g>
</svg>
