<?xml version="1.0" encoding="UTF-8"?>
<svg id="Layer_1" data-name="Layer 1" xmlns="http://www.w3.org/2000/svg" viewBox="0 0 1114.2 1155.92">
  <defs>
    <style>
      .cls-1 {
        fill: #ffc61b;
      }

      .cls-2 {
        fill: #e09112;
      }

      .cls-3 {
        fill: #121149;
      }

      .cls-4 {
        fill: #273b7a;
      }

      .cls-5 {
        fill: #9bafda;
        stroke: #000;
        stroke-miterlimit: 10;
      }

      .cls-6 {
        font-family: MyriadPro-Regular, 'Myriad Pro';
        font-size: 120px;
      }
    </style>
  </defs>
  <g id="Layer_2" data-name="Layer 2">
    <ellipse class="cls-5" cx="557.1" cy="592.72" rx="556.6" ry="562.7"/>
  </g>
  <g id="Layer_2-2" data-name="Layer 2">
    <text class="cls-6" transform="translate(180.4 396.34) rotate(-57.78)"><tspan x="0" y="0">Y</tspan></text>
    <text class="cls-6" transform="translate(210.12 346.83) rotate(-48.87)"><tspan x="0" y="0">O</tspan></text>
    <text class="cls-6" transform="translate(262.21 287.05) rotate(-38.55)"><tspan x="0" y="0">U</tspan></text>
    <text class="cls-6" transform="translate(320.67 240.81) rotate(-29.34)"><tspan x="0" y="0">R</tspan></text>
    <text class="cls-6" transform="translate(375.61 210.96) rotate(-23.49)"><tspan x="0" y="0"> </tspan></text>
    <text class="cls-6" transform="translate(397.88 201.24) rotate(-20.19)"><tspan x="0" y="0"> </tspan></text>
    <text class="cls-6" transform="translate(419.4 191.96) rotate(-14.05)"><tspan x="0" y="0">C</tspan></text>
    <text class="cls-6" transform="translate(481.31 175.44) rotate(-4.68)"><tspan x="0" y="0">O</tspan></text>
    <text class="cls-6" transform="translate(560.21 168.64) rotate(6.01)"><tspan x="0" y="0">O</tspan></text>
    <text class="cls-6" transform="translate(639.29 177.76) rotate(15.06)"><tspan x="0" y="0">L</tspan></text>
    <text class="cls-6" transform="translate(692.02 192.61) rotate(20.37)"><tspan x="0" y="0"> </tspan></text>
    <text class="cls-6" transform="translate(714.81 201.03) rotate(23.65)"><tspan x="0" y="0"> </tspan></text>
    <text class="cls-6" transform="translate(736.8 209.79) rotate(28.93)"><tspan x="0" y="0">L</tspan></text>
    <text class="cls-6" transform="translate(780.65 232.33) rotate(37.27)"><tspan x="0" y="0">O</tspan></text>
    <text class="cls-6" transform="translate(843.8 280.29) rotate(47.56)"><tspan x="0" y="0">G</tspan></text>
    <text class="cls-6" transform="translate(894.26 334.66) rotate(57.92)"><tspan x="0" y="0">O</tspan></text>
  </g>
  <g id="Layer_3" data-name="Layer 3">
    <g>
      <path d="m200.03,834.59c2.01,3.28,4.05,6.51,6.12,9.71-16.8,10.92-33.59,21.84-50.39,32.76,7.82,12.07,16.05,23.64,24.64,34.73-1.92,1.5-3.84,3-5.75,4.5-11.36-14.65-22.08-30.14-32.09-46.48,19.16-11.74,38.31-23.48,57.47-35.22Z"/>
      <path d="m242.03,954.24c-12.15,13.2-30.48,6.61-42.02-6.12-12.98-14.19-14.71-32.07-2.69-41.51,12.76-10.03,28.85-4.83,40.61,7.94,12.2,13.26,14.18,28.77,4.11,39.69Zm-36.59-38.17c-8.13,6.79-8.59,18.82-.2,27.99,8.21,8.95,20.16,9.61,27.78,1.82,5.77-5.9,9.17-16.98-.13-27.04-9.24-10.14-20.37-8.71-27.46-2.77Z"/>
      <path d="m310.51,979.32c-2.2,2.74-4.64,5.8-8.01,10.65-5.35,7.71-10.7,15.41-16.05,23.12-6.32,9.13-12.76,12.99-20.72,12.43-8.07-.39-16.89-5.3-23.87-10.94-6.65-5.34-12.94-12.58-15.5-18.34,2.28-.96,4.56-1.94,6.83-2.93,2.17,4.56,6.54,10.69,13.33,16.15,10.21,8.21,20.71,9.95,27.86.06,1.06-1.46,2.13-2.91,3.19-4.37-.07-.05-.15-.11-.22-.16-5.64,1.44-13.68,0-21.94-6.63-13.28-10.7-15.43-26.66-6.36-36.51,11.12-12.07,27.47-9.74,38.4-1.07,8.31,6.62,10.4,13.53,10.23,18.39.07.05.14.1.21.15,1.57-1.87,3.14-3.74,4.71-5.62,2.62,1.91,5.26,3.78,7.92,5.62Zm-20.64,8.77c.89-1.21,1.55-2.34,1.84-3.62,1.32-5.37-.6-11.99-7.05-17.09-8.43-6.67-18.91-6.42-26.26,2.06-6.22,7.16-6.36,17.66,4.03,25.92,5.89,4.67,13.38,6,18.76,2.99,1.43-.81,2.66-2.02,3.54-3.24,1.71-2.34,3.43-4.69,5.14-7.03Z"/>
      <path d="m362.82,1037c-7.54,16.28-26.38,16.04-40.58,8.02-15.94-8.91-22.45-24.8-13.99-37.54,8.98-13.53,25.21-14.17,39.64-6.17,14.96,8.31,21.18,22.21,14.93,35.69Zm-44.47-23.5c-5.61,8.99-2.72,20.27,7.59,26.02,10.07,5.62,21.33,2.35,26.19-7.41,3.68-7.38,3.7-18.86-7.69-25.15-11.36-6.37-21.21-1.31-26.1,6.54Z"/>
      <path d="m423.99,1023.6c-7.74-2.63-15.42-5.48-23.02-8.56.93-2.29,1.87-4.57,2.8-6.86,18.2,7.36,36.82,13.42,55.71,18.19-.61,2.39-1.23,4.78-1.84,7.17-7.94-2-15.82-4.23-23.65-6.68-6.05,19.08-12.1,38.16-18.15,57.24-3.8-1.19-7.6-2.43-11.38-3.71,6.51-18.93,13.02-37.86,19.52-56.79Z"/>
      <path d="m479.28,1099.49c.04-2.06.09-4.11.14-6.17-.13-.02-.26-.05-.4-.07-4.21,3.11-11.8,5.19-20.97,3.19-13.05-2.89-17.81-11.4-15.98-18.13,3.13-11.38,17.49-13.81,40.71-9.48.06-.33.12-.66.18-.98.71-3.98.61-11.17-11.34-13.61-5.44-1.14-11.42-1.08-16.07.04-.34-2.08-.67-4.15-.99-6.23,5.43-1.31,12.69-1.34,19.97.15,17.59,3.51,20.45,13.87,18.98,23.54-.94,5.96-1.88,11.92-2.81,17.89-.65,4.15-1.03,8.24-.73,11.63-3.56-.54-7.12-1.13-10.68-1.75Zm2.67-24.62c-12.1-2.3-26.11-3.85-28.36,5.26-1.35,5.54,2.98,9.35,8.89,10.6,8.27,1.75,14.29-1.25,16.82-4.96.55-.82.99-1.75,1.15-2.64.5-2.76,1-5.51,1.5-8.27Z"/>
      <path d="m564.27,1058.6c-.26,3.5-.53,7.4-.56,13.3-.05,9.37-.1,18.73-.14,28.1-.04,11.09-3.06,17.91-9.71,21.96-6.64,4.26-16.31,5.26-24.87,4.64-8.15-.56-17-2.84-22.1-6.05,1.28-2.1,2.54-4.21,3.79-6.32,4.16,2.46,10.91,4.94,19.22,5.52,12.51.87,21.83-3.65,22.11-15.84.05-1.8.1-3.6.15-5.4-.09,0-.18,0-.26,0-3.7,4.39-10.87,7.78-20.99,7.08-16.29-1.15-26.51-12.86-24.69-26.11,2.24-16.25,16.3-23.81,29.64-22.97,10.16.66,15.6,5.16,18.11,9.25.08,0,.17,0,.25,0,.23-2.43.45-4.86.68-7.29,3.13.08,6.25.12,9.38.13Zm-11.64,18.91c.04-1.5-.05-2.8-.51-4.02-1.88-5.16-7.02-9.51-14.88-9.99-10.29-.64-18.38,5.61-19.59,16.76-1.03,9.42,4.5,18.04,17.19,18.87,7.19.46,13.86-2.72,16.5-8.24.7-1.48,1.01-3.17,1.05-4.67.08-2.9.17-5.8.25-8.7Z"/>
      <path d="m580.79,1035.75c3.39-.11,6.78-.27,10.17-.46,1.38,23.63,2.76,47.26,4.15,70.88-3.95.23-7.91.41-11.87.54-.82-23.65-1.63-47.31-2.45-70.96Z"/>
      <path d="m620.43,1041.65c.5,2.96-1.81,5.68-5.98,6.13-3.7.4-6.55-1.75-6.83-4.74-.29-3.09,2.16-5.72,5.86-6.12,3.82-.42,6.55,1.65,6.95,4.73Zm-5.41,62.98c-1.59-16.06-3.18-32.11-4.77-48.17,3.56-.35,7.11-.73,10.67-1.16,1.97,16.02,3.95,32.03,5.92,48.05-3.93.48-7.87.91-11.82,1.29Z"/>
      <path d="m640.67,1065.74c-.81-4.94-1.6-8.96-2.6-12.85,3.13-.5,6.26-1.04,9.39-1.6.68,2.59,1.37,5.17,2.06,7.76.08-.01.16-.03.24-.04,2.11-5.07,7.95-10.72,17.43-12.88,7.94-1.75,21.21-1.2,25.82,14.72,2.61,9.28,5.23,18.56,7.84,27.84-3.84,1.07-7.68,2.08-11.54,3.06-2.31-9.01-4.61-18.03-6.92-27.04-1.97-7.58-7.06-12.9-17.06-10.67-7,1.54-11.67,6.59-12.64,11.76-.29,1.17-.26,2.7.01,4.17,1.8,9.54,3.59,19.07,5.39,28.61-3.9.72-7.81,1.4-11.73,2.03-1.9-11.62-3.8-23.23-5.71-34.85Z"/>
      <path d="m718.53,1059.62c4,11.22,15.31,12.65,26.42,8.34,7.92-3.08,12.23-6.1,15.74-9.13,1.45,1.66,2.92,3.32,4.39,4.97-3.3,2.96-9.35,7.31-19.18,11.09-19.16,7.29-33.75,1.24-37.98-12.69-4.25-14.03,2.43-27.91,18.48-33.98,17.95-6.94,28.34,3.28,32.07,11.47.74,1.64,1.07,3.03,1.32,3.9-13.53,6-27.3,11.34-41.25,16.02Zm28.98-17.61c-2.09-5.24-8.22-11.97-19.67-7.59-10.32,3.87-12.29,13.09-11.21,19.19,10.41-3.49,20.71-7.36,30.88-11.59Z"/>
      <path d="m774.12,982.34c3.03-1.69,6.04-3.42,9.03-5.18,5.13,8.68,10.27,17.35,15.4,26.03.07-.04.15-.09.22-.13.26-3.06,1.5-6.37,3.6-9.42,1.99-2.99,4.73-5.9,8.19-8.15,6.81-4.36,19.75-8.66,29.62,4.8,5.62,7.8,11.25,15.59,16.87,23.39-3.33,2.4-6.68,4.76-10.05,7.08-5.24-7.66-10.48-15.32-15.72-22.97-4.45-6.45-11.2-9.71-20.03-4.03-6.08,3.89-8.91,10.23-8.24,15.42.06,1.36.61,2.55,1.47,4.01,4.96,8.39,9.93,16.78,14.89,25.17-3.49,2.06-7.01,4.08-10.54,6.05-11.56-20.68-23.13-41.37-34.69-62.05Z"/>
      <path d="m864.23,979.67c7.63,9.15,19,6.31,28.26-1.98,6.6-5.92,9.74-10.45,12.11-14.69,1.96,1.03,3.93,2.04,5.9,3.06-2.19,4.09-6.57,10.56-14.77,17.86-16.02,14.15-32.08,13.75-40.85,2.13-8.82-11.72-7.08-27.3,6.34-39.11,14.97-13.39,28.44-7.7,34.79-1.31,1.26,1.28,2.05,2.48,2.59,3.21-11.05,10.94-22.52,21.22-34.38,30.83Zm22-27.64c-3.77-4.2-11.95-8.24-21.52.24-8.64,7.55-7.43,17.02-4.33,22.4,8.84-7.17,17.47-14.72,25.86-22.64Z"/>
      <path d="m901.63,930.42c-4.13-3.94-7.77-7.22-11.29-10.05,2.31-2.43,4.59-4.9,6.85-7.39,2.43,2.04,4.86,4.08,7.29,6.12.12-.13.24-.26.36-.4-2.82-6.58-1.27-14.48,3.71-20.47.85-1.02,1.51-1.67,2.34-2.36,2.13,1.77,4.26,3.53,6.4,5.3-.93.81-1.78,1.68-2.81,2.92-5.34,6.39-5.76,13.87-1.97,19.55.71,1.01,1.56,2.15,2.67,3.16,6.38,5.78,12.75,11.56,19.13,17.34-2.82,3.14-5.67,6.24-8.56,9.29-8.04-7.67-16.07-15.34-24.11-23.01Z"/>
      <path d="m942.5,898.77c9.57,7.08,20.28,1.19,27.72-9.68,5.31-7.76,7.46-13.19,8.93-18.12,2.18.49,4.36.96,6.54,1.43-1.31,4.73-4.29,12.47-10.9,22.04-12.92,18.58-28.99,22.43-40.22,13.19-11.3-9.34-12.93-25.3-2.1-40.8,12.04-17.54,26.7-15.65,34.4-10.97,1.54.94,2.58,1.92,3.27,2.52-8.67,14.13-17.9,27.59-27.64,40.39Zm15.98-33.72c-4.66-3.18-13.68-4.95-21.4,6.18-6.99,9.94-3.74,19.05.5,23.59,7.26-9.55,14.23-19.48,20.9-29.77Z"/>
    </g>
  </g>
  <g id="Layer_1-2" data-name="Layer 1">
    <circle class="cls-4" cx="557.5" cy="594.62" r="400"/>
    <g>
      <path class="cls-3" d="m938.6,705.62l-289.3-289.3,7.1,146.4,2.3,2.3-15,1-210.9-211,3.6,41.5,1.8,1.8-59.7,59.7-2.6-2.6-40.3-3.3,454.5,454.6c68.9-49,121.5-119.2,148.5-201.1Z"/>
      <path class="cls-3" d="m711.4,950.32l-277.9-277.9,1.3,26,5,10-6.1,35.6-20.3-20.3-29.7-1.5,251.1,251.1c26.5-5.1,52.2-12.9,76.6-23Z"/>
    </g>
    <path class="cls-1" d="m432.8,549.42c0-94.1-97.2-97.2-97.2-97.2,94.1,0,97.2-97.2,97.2-97.2,0,94.1,97.2,97.2,97.2,97.2-94.1,0-97.2,97.2-97.2,97.2Z"/>
    <path class="cls-2" d="m432.8,355.02c0,94.1,97.2,97.2,97.2,97.2-94.1,0-97.2,97.2-97.2,97.2v-194.4Z"/>
    <path class="cls-1" d="m433.5,772.12c0-48.2-49.8-49.8-49.8-49.8,48.2,0,49.8-49.8,49.8-49.8,0,48.2,49.8,49.8,49.8,49.8-48.2-.1-49.8,49.8-49.8,49.8Z"/>
    <path class="cls-2" d="m433.5,672.42c0,48.2,49.8,49.8,49.8,49.8-48.3,0-49.8,49.8-49.8,49.8v-99.6Z"/>
    <path class="cls-1" d="m649.3,735.72c0-154.6-159.7-159.7-159.7-159.7,154.6,0,159.7-159.7,159.7-159.7,0,154.6,159.7,159.7,159.7,159.7-154.6,0-159.7,159.7-159.7,159.7Z"/>
    <path class="cls-2" d="m649.3,416.32c0,154.6,159.7,159.7,159.7,159.7-154.6,0-159.7,159.7-159.7,159.7v-319.4Z"/>
  </g>
</svg>