<?xml version="1.0" encoding="UTF-8"?>
<svg id="Layer_1" data-name="Layer 1" xmlns="http://www.w3.org/2000/svg" viewBox="0 0 1114.2 1126.4">
  <defs>
    <style>
      .cls-1 {
        fill: #ffc61b;
      }

      .cls-2 {
        fill: #e09112;
      }

      .cls-3 {
        fill: #121149;
      }

      .cls-4 {
        fill: #273b7a;
      }

      .cls-5 {
        fill: #9bafda;
        stroke: #000;
        stroke-miterlimit: 10;
      }

      .cls-6 {
        font-family: MyriadPro-Regular, 'Myriad Pro';
        font-size: 120px;
      }
    </style>
  </defs>
  <g id="Layer_2" data-name="Layer 2">
    <ellipse class="cls-5" cx="557.1" cy="563.2" rx="556.6" ry="562.7"/>
  </g>
  <g id="Layer_2-2" data-name="Layer 2">
    <text class="cls-6" transform="translate(213.74 311.08) rotate(-46.94)"><tspan x="0" y="0">M</tspan></text>
    <text class="cls-6" transform="translate(278.02 243.91) rotate(-36.59)"><tspan x="0" y="0">Y</tspan></text>
    <text class="cls-6" transform="translate(329.04 207.15) rotate(-30.77)"><tspan x="0" y="0"> </tspan></text>
    <text class="cls-6" transform="translate(349.9 194.7) rotate(-27.48)"><tspan x="0" y="0"> </tspan></text>
    <text class="cls-6" transform="translate(370.06 182.74) rotate(-21.32)"><tspan x="0" y="0">C</tspan></text>
    <text class="cls-6" transform="translate(429.3 158.53) rotate(-11.76)"><tspan x="0" y="0">O</tspan></text>
    <text class="cls-6" transform="translate(506.84 142.09) rotate(-1.12)"><tspan x="0" y="0">O</tspan></text>
    <text class="cls-6" transform="translate(586.46 141.29) rotate(7.77)"><tspan x="0" y="0">L</tspan></text>
    <text class="cls-6" transform="translate(640.65 149.32) rotate(13.08)"><tspan x="0" y="0"> </tspan></text>
    <text class="cls-6" transform="translate(664.31 154.78) rotate(16.39)"><tspan x="0" y="0"> </tspan></text>
    <text class="cls-6" transform="translate(687.22 160.68) rotate(21.72)"><tspan x="0" y="0">L</tspan></text>
    <text class="cls-6" transform="translate(733.52 177.51) rotate(30.14)"><tspan x="0" y="0">O</tspan></text>
    <text class="cls-6" transform="translate(802.13 217.26) rotate(40.44)"><tspan x="0" y="0">G</tspan></text>
    <text class="cls-6" transform="translate(858.94 264.98) rotate(50.72)"><tspan x="0" y="0">O</tspan></text>
  </g>
  <g id="Layer_3" data-name="Layer 3">
    <g>
      <path d="m184.19,805.43c3.24,4.07,7.83,10.69,12.17,17.51,6.19,9.73,9.16,16.53,9.61,23.05.57,5.27-.96,9.9-5.21,13.08-5.19,3.9-13.31,2.62-21.13-4.14-.05.04-.11.08-.16.11,3.74,8.32,5.8,19.92-2.12,26.01-4.62,3.51-10.15,3.5-15.79,1.34-7.56-3.14-15.92-11.37-24.91-25.74-4.9-7.85-8.15-14.25-10.04-18.38,19.2-10.95,38.4-21.9,57.59-32.85Zm-17.67,24.41c1.94,3.21,3.92,6.39,5.92,9.53,7.03,11,15.36,14.31,20.63,10.54,6.44-4.61,4.35-12.84-1.99-22.8-2.89-4.55-4.76-7.06-6-8.53-6.18,3.75-12.37,7.51-18.55,11.26Zm-27.61,16.76c1.09,2.38,2.99,5.68,5.51,9.65,7.32,11.58,17.23,19.75,25.16,13.99,7.45-5.42,4.04-16.66-3.23-28.15-1.85-2.91-3.67-5.85-5.46-8.82-7.32,4.45-14.65,8.89-21.97,13.34Z"/>
      <path d="m194.77,897.63c-8.99,7.81-5.64,19.59,3.01,29,6.17,6.7,10.79,9.83,15.09,12.18-.98,2-1.96,4-2.92,6-4.14-2.17-10.73-6.5-18.35-14.85-14.8-16.32-15.17-33.14-3.7-42.08,11.54-9.04,27.55-6.93,39.91,6.77,13.97,15.22,8.48,28.75,2.25,35.28-1.26,1.29-2.43,2.1-3.16,2.65-11.17-10.98-21.9-22.62-32.14-34.94Zm28.64,22.47c4.11-3.88,7.99-12.15-.88-21.9-7.92-8.83-17.51-7.69-22.84-4.52,7.64,9.19,15.55,17.99,23.72,26.42Z"/>
      <path d="m258.57,926.91c-2.97,10.18-5.69,20.49-8.14,30.92-.92,3.42-2.08,7.42-3.07,10.37.07.06.14.12.22.18,2.82-1.43,6.24-3.42,9.72-5.1,9.36-4.6,18.56-9.41,27.57-14.44,3.14,2.42,6.31,4.79,9.51,7.12-11.3,6.02-22.9,11.69-34.78,16.99-17.12,7.65-27.48,10.12-37.56,8.28-7.29-1.29-13.08-4.55-15.77-6.5.86-2.57,1.74-5.13,2.64-7.68,2.86,1.73,6.96,3.6,11.26,4.5,3.88.94,9.41,1.25,14.5-.32,1.02-.31,1.8-.57,2.12-.95.32-.38.56-1.1.85-2.31,3.25-16.84,7.19-33.37,11.81-49.55,3.01,2.88,6.06,5.71,9.14,8.49Z"/>
      <path d="m337.68,1010.88c-8.2,15.96-27.21,14.85-41.25,6.12-15.76-9.7-21.74-25.98-12.74-38.36,9.55-13.14,25.95-12.96,40.22-4.25,14.8,9.05,20.57,23.27,13.77,36.48Zm-44.02-25.69c-5.99,8.75-3.48,20.21,6.71,26.47,9.96,6.12,21.43,3.37,26.7-6.18,3.99-7.22,4.42-18.73-6.84-25.59-11.23-6.94-21.35-2.35-26.57,5.29Z"/>
      <path d="m355.44,1007.84c2.2-4.5,3.89-8.24,5.31-12,2.92,1.42,5.86,2.81,8.81,4.17-.93,2.51-1.87,5.02-2.79,7.53.08.04.15.07.23.11,4.73-2.91,12.91-4.12,22.08-.41,7.65,3.16,18.36,11.24,12.93,26.91-3.22,9.09-6.45,18.18-9.67,27.26-3.8-1.33-7.59-2.71-11.37-4.14,3.32-8.7,6.65-17.39,9.97-26.09,2.77-7.33,1.63-14.61-8.01-18.56-6.74-2.79-13.6-1.39-17.42,2.27-.93.79-1.79,2.05-2.42,3.41-4.05,8.83-8.11,17.65-12.16,26.48-3.69-1.68-7.36-3.4-11.01-5.18,5.18-10.59,10.35-21.17,15.53-31.76Z"/>
      <path d="m479.69,1011.33c-3.62,19.17-7.24,38.34-10.86,57.51-.8,4.23-1.58,9.07-1.78,12.39-3.54-.65-7.07-1.34-10.59-2.07.4-2.78.8-5.56,1.2-8.33-.09-.02-.17-.04-.26-.05-4.65,4.55-13.48,6.88-24,4.19-15.68-4.01-24.43-17.31-19.79-31.25,4.96-15.34,19.74-20.95,33.72-17.45,8.82,2.22,14.08,6.9,15.97,11.3.08.02.16.03.25.05,2.02-9.42,4.03-18.85,6.05-28.27,3.36.71,6.74,1.37,10.11,2Zm-18.97,39.38c.23-1.08.42-2.57.27-3.73-.47-5.83-5.35-11.55-13.34-13.53-10.98-2.73-19.73,2.96-22.82,13.24-2.82,9.36,1.09,19.07,13.62,22.21,7.76,1.94,15.76-.34,19.2-6.37.64-1.09,1.02-2.24,1.31-3.61.59-2.74,1.17-5.48,1.76-8.22Z"/>
      <path d="m533.02,1026.54c-.28,4.63-.55,9.25-.83,13.88,5.16.3,10.33.52,15.49.64-.06,2.23-.11,4.47-.17,6.7-5.24-.13-10.49-.35-15.72-.65-.52,8.69-1.04,17.37-1.55,26.06-.37,5.98,1.71,9.54,8.32,9.82,3.09.13,5.39-.11,6.88-.37.12,2.2.24,4.41.36,6.61-2.33.64-6.04,1.03-10.68.81-5.6-.26-10.02-1.86-12.68-4.46-3.19-2.84-4.03-7.23-3.55-12.91.73-8.77,1.46-17.54,2.19-26.31-3.11-.25-6.23-.54-9.33-.86.23-2.22.46-4.44.69-6.67,3.06.31,6.13.59,9.2.84.32-3.85.64-7.71.96-11.56,3.49-.48,6.97-1.01,10.43-1.58Z"/>
      <path d="m559.82,1018.6c3.43,0,6.86-.05,10.28-.14.26,10.06.53,20.13.79,30.19.08,0,.17,0,.25,0,1.69-2.55,4.34-4.82,7.61-6.47,3.14-1.64,6.88-2.83,10.92-3.11,7.92-.47,21.02,2.16,23.05,18.7,1.1,9.54,2.2,19.08,3.3,28.62-3.98.45-7.96.85-11.94,1.21-.84-9.23-1.68-18.46-2.52-27.69-.74-7.79-4.95-13.95-15.24-13.31-7.08.42-12.55,4.58-14.46,9.43-.6,1.22-.7,2.52-.65,4.22.25,9.73.51,19.46.76,29.19-4,.1-8,.16-11.99.17-.05-23.67-.1-47.34-.15-71Z"/>
      <path d="m638.2,1060.48c2.17,11.7,13.14,14.9,24.82,12.41,8.33-1.78,13.07-4.08,17.03-6.51,1.17,1.87,2.35,3.74,3.54,5.61-3.74,2.39-10.41,5.72-20.74,7.89-20.13,4.16-33.63-4.11-35.59-18.52-1.97-14.52,6.9-27.18,23.75-30.62,18.88-4.01,27.5,7.74,29.89,16.42.47,1.74.58,3.16.68,4.06-14.33,3.76-28.8,6.85-43.38,9.27Zm31.5-12.79c-1.23-5.51-6.21-13.12-18.25-10.61-10.83,2.18-14.27,10.98-14.17,17.17,10.87-1.81,21.68-3.99,32.42-6.55Z"/>
      <path d="m725.22,1051.97c3.88.43,10.39-.04,15.97-2.24,8.12-3.21,10.61-7.81,9.02-11.47-1.66-3.88-5.64-4.63-14.49-3.7-11.83,1.3-18.46-1.56-20.41-7-2.59-7.39,2.64-15.91,14.54-20.74,5.63-2.29,11.08-3.14,14.83-3.06.04,2.32.07,4.65.08,6.97-2.7-.13-7.39.16-12.63,2.3-6.06,2.46-8.4,6.52-7.11,9.9,1.43,3.72,5.56,4.14,14.07,3.27,11.32-1.2,18.24.18,21.26,6.75,3.58,7.68-2.19,17.08-17.01,22.94-6.81,2.68-13.62,3.76-18.68,3.41.2-2.44.39-4.88.56-7.31Z"/>
      <path d="m763.88,976.81c2.18,4.1,4.36,8.19,6.54,12.29,4.65-2.46,9.27-5.01,13.85-7.65,1.12,1.94,2.24,3.87,3.36,5.81-4.65,2.68-9.33,5.26-14.06,7.76,4.09,7.69,8.19,15.38,12.28,23.08,2.81,5.3,6.48,7.25,12.39,4,2.76-1.53,4.65-2.95,5.81-3.96,1.26,1.82,2.52,3.64,3.78,5.45-1.7,1.79-4.73,4.08-8.89,6.35-5.02,2.73-9.71,3.69-13.38,2.87-4.27-.75-7.29-4.07-9.85-9.17-3.95-7.88-7.91-15.75-11.86-23.63-2.84,1.42-5.7,2.8-8.56,4.15-.96-2.02-1.92-4.04-2.88-6.06,2.82-1.33,5.64-2.7,8.44-4.09-1.74-3.46-3.47-6.92-5.21-10.38,2.78-2.24,5.53-4.52,8.25-6.83Z"/>
      <path d="m851.68,995.43c-1.46-1.46-2.92-2.91-4.38-4.37-.11.08-.23.16-.34.25-.81,5.28-4.84,12.35-12.96,17.7-11.58,7.58-21.19,5.12-24.74-.88-5.98-10.2,2.61-22.27,22.7-36.5-.19-.27-.39-.54-.58-.81-2.36-3.29-7.68-8.16-18.16-1.03-4.79,3.23-9.08,7.64-11.64,11.82-1.75-1.19-3.5-2.39-5.23-3.6,2.98-4.88,8.22-10.21,14.61-14.55,15.36-10.56,25.01-5.61,30.95,2.19,3.65,4.82,7.29,9.64,10.94,14.46,2.54,3.35,5.24,6.46,7.91,8.58-3,2.29-6.03,4.54-9.07,6.75Zm-15.94-19.01c-10.51,7.4-21.8,16.59-16.82,24.56,3.04,4.83,8.95,4.31,14.16.82,7.29-4.88,9.5-11.43,8.65-15.87-.19-.97-.55-1.95-1.08-2.68-1.64-2.28-3.28-4.55-4.91-6.83Z"/>
      <path d="m854.47,951.08c-3.63-4.41-6.85-8.11-10-11.35,2.55-2.1,5.07-4.23,7.58-6.4,2.16,2.32,4.33,4.64,6.49,6.96.13-.11.27-.23.4-.34-2.04-6.84.37-14.42,5.94-19.65.95-.89,1.67-1.44,2.56-2.01,1.9,2.01,3.8,4.03,5.71,6.04-1,.68-1.93,1.42-3.09,2.5-5.96,5.58-7.21,12.89-4.12,18.97.58,1.08,1.3,2.32,2.28,3.46,5.63,6.51,11.27,13.03,16.9,19.54-3.13,2.72-6.29,5.4-9.47,8.04-7.06-8.59-14.12-17.17-21.18-25.76Z"/>
      <path d="m902.81,940.03c3.81-1.39,9.73-4.83,14.08-9.48,6.32-6.77,6.79-12.22,3.8-14.87-3.14-2.82-7.19-1.62-15.12,3.38-10.58,6.73-17.97,7.12-22.02,2.99-5.45-5.64-4.01-15.88,5.2-25.94,4.35-4.76,9.14-8.15,12.7-9.86.98,2.14,1.95,4.29,2.91,6.44-2.59,1.17-6.88,3.66-10.94,8.1-4.69,5.12-5.23,9.96-2.64,12.48,2.87,2.77,6.91,1.25,14.55-3.55,10.15-6.44,17.23-8.48,22.73-3.8,6.49,5.43,4.89,16.96-6.65,29.31-5.3,5.66-11.26,9.81-16.14,11.8-.81-2.34-1.63-4.68-2.46-7.01Z"/>
      <path d="m941.93,902.12c-2.87-2.34-2.61-6.8.51-10.84,3.12-4.03,7.29-5.3,10.25-3.08,2.88,2.16,2.98,6.57-.41,10.96-3.21,4.15-7.56,5.23-10.35,2.96Z"/>
      <path d="m960.39,877.58c-3.01-2.16-2.99-6.67-.07-10.97,2.91-4.29,7.04-5.87,10.14-3.84,3.01,1.97,3.35,6.42.18,11.09-3.01,4.42-7.31,5.81-10.24,3.72Z"/>
      <path d="m977.63,851.5c-3.14-1.96-3.36-6.52-.66-11.07,2.7-4.55,6.76-6.45,9.98-4.63,3.13,1.77,3.71,6.25.77,11.2-2.78,4.68-7.04,6.4-10.09,4.5Z"/>
    </g>
  </g>
  <g id="Layer_1-2" data-name="Layer 1">
    <circle class="cls-4" cx="557.5" cy="565.1" r="400"/>
    <g>
      <path class="cls-3" d="m938.6,676.1l-289.3-289.3,7.1,146.4,2.3,2.3-15,1-210.9-211,3.6,41.5,1.8,1.8-59.7,59.7-2.6-2.6-40.3-3.3,454.5,454.6c68.9-49,121.5-119.2,148.5-201.1Z"/>
      <path class="cls-3" d="m711.4,920.8l-277.9-277.9,1.3,26,5,10-6.1,35.6-20.3-20.3-29.7-1.5,251.1,251.1c26.5-5.1,52.2-12.9,76.6-23Z"/>
    </g>
    <path class="cls-1" d="m432.8,519.9c0-94.1-97.2-97.2-97.2-97.2,94.1,0,97.2-97.2,97.2-97.2,0,94.1,97.2,97.2,97.2,97.2-94.1,0-97.2,97.2-97.2,97.2Z"/>
    <path class="cls-2" d="m432.8,325.5c0,94.1,97.2,97.2,97.2,97.2-94.1,0-97.2,97.2-97.2,97.2v-194.4Z"/>
    <path class="cls-1" d="m433.5,742.6c0-48.2-49.8-49.8-49.8-49.8,48.2,0,49.8-49.8,49.8-49.8,0,48.2,49.8,49.8,49.8,49.8-48.2-.1-49.8,49.8-49.8,49.8Z"/>
    <path class="cls-2" d="m433.5,642.9c0,48.2,49.8,49.8,49.8,49.8-48.3,0-49.8,49.8-49.8,49.8v-99.6Z"/>
    <path class="cls-1" d="m649.3,706.2c0-154.6-159.7-159.7-159.7-159.7,154.6,0,159.7-159.7,159.7-159.7,0,154.6,159.7,159.7,159.7,159.7-154.6,0-159.7,159.7-159.7,159.7Z"/>
    <path class="cls-2" d="m649.3,386.8c0,154.6,159.7,159.7,159.7,159.7-154.6,0-159.7,159.7-159.7,159.7v-319.4Z"/>
  </g>
</svg>