<?xml version="1.0" encoding="utf-8"?>
<!-- Generator: Adobe Illustrator 27.2.0, SVG Export Plug-In . SVG Version: 6.00 Build 0)  -->
<svg version="1.1" id="Capa_1" xmlns="http://www.w3.org/2000/svg" xmlns:xlink="http://www.w3.org/1999/xlink" x="0px" y="0px"
	 viewBox="0 0 800 800" style="enable-background:new 0 0 800 800;" xml:space="preserve">
<style type="text/css">
	.st0{fill:#231F20;stroke:#000000;stroke-width:12;stroke-miterlimit:10;}
</style>
<path class="st0" d="M642.3,800h-31.6c-4,0-7.3-3.3-7.3-7.3v-68.8l-57.3-56.4c-0.5,0.5-1,0.9-1.7,1.3c-2.1,1.2-4.7,1.2-6.9,0.1
	l-39.5-20c-0.9-0.4-1.7-1.1-2.3-1.8l-15.2-18.2c-1-1.2-1.6-2.6-1.7-4.1l-0.8-11.4L451.1,599v1.3c0,1.5-0.5,2.9-1.3,4.2l-37,53.4
	c-1.4,2-3.6,3.1-6,3.1h-13.7c-2.4,0-4.6-1.2-6-3.1l-37-53.4c-0.8-1.2-1.3-2.7-1.3-4.2V599l-27.1,14.3l-0.8,11.4
	c-0.1,1.5-0.7,3-1.7,4.1l-15.2,18.2c-0.6,0.8-1.4,1.4-2.3,1.8l-39.5,20c-2.2,1.1-4.7,1-6.9-0.1c-0.6-0.4-1.2-0.8-1.7-1.3l-57.3,56.4
	v68.8c0,4-3.3,7.3-7.3,7.3h-31.6c-1.6,0-3.2-0.5-4.5-1.5l-27.3-21.2c-1.8-1.4-2.9-3.6-2.8-5.9l6.1-319.9c0-1.5,0.5-2.9,1.4-4.1
	l11.3-15.6l-0.5-18.5c-0.2-8.1,3.1-15.8,9.1-21.2c6-5.4,14-7.9,22-6.9l0,0c13.7,1.7,24.1,13.5,24.1,27.4v173.7l53.9-26.7
	c3.7-9.2,25.2-64.6,26.8-103.6c1.1-27-0.3-54-2-78.7c-68.4-32.9-112.4-102.5-112.4-178.6V198c0-109.2,88.8-198,198-198h78.3
	c109.2,0,198,88.8,198,198v0.5c0,76.1-44,145.7-112.4,178.6c-1.7,24.7-3.1,51.7-2,78.7c1.6,39.1,23.2,94.5,26.8,103.6l53.9,26.7
	V412.4c0-13.9,10.4-25.6,24.1-27.4c8-1,16,1.5,22,6.9c6,5.4,9.3,13.1,9.1,21.2l-0.5,18.5l11.3,15.6c0.9,1.2,1.4,2.6,1.4,4.1
	l6.1,319.9c0,2.3-1,4.5-2.8,5.9l-27.3,21.2C645.5,799.5,644,800,642.3,800z M618.1,785.4h21.8l22.5-17.5l-6-313.9l-11.4-15.8
	c-0.9-1.3-1.4-2.9-1.4-4.5l0.6-21c0.1-3.8-1.5-7.5-4.3-10c-2.8-2.6-6.6-3.8-10.4-3.3c-6.5,0.8-11.4,6.4-11.4,12.9L618.1,785.4
	L618.1,785.4z M160.2,785.4h21.8v-373c0-6.5-4.9-12.1-11.4-12.9l0,0c-3.8-0.5-7.6,0.7-10.4,3.3s-4.4,6.2-4.3,10l0.6,21
	c0,1.6-0.4,3.2-1.4,4.5L143.7,454l-6,313.9L160.2,785.4z M549.1,649.9l54.4,53.5V602.4l-52.8-26.2V606
	C550.7,621.1,549.8,638.4,549.1,649.9z M196.5,602.4v101.1l54.4-53.5c-0.7-11.6-1.6-28.8-1.6-43.9v-29.8L196.5,602.4z M263.9,565
	V606c0,15.4,1,33.6,1.7,45l28.3-14.4l12.7-15.3l16.8-235.7V90.1c-5.3,6.8-11,14.9-14.8,22c-8.8,16.5-18.1,60.1-19.8,93.4
	c-1.3,26.1-2.6,61.1-2.6,91.6c0,13,0.2,25.1,0.7,35.4c0.5,9.7,1.2,19.8,2,30.6c2,28.4,4.2,60.7,2.9,93.3
	C290.1,498.4,267.8,555.2,263.9,565z M506.2,636.6l28.3,14.4c0.7-11.3,1.7-29.6,1.7-45V565c-3.9-9.7-26.2-66.6-27.9-108.6
	c-1.3-32.7,0.9-64.9,2.9-93.3c0.8-10.7,1.5-20.9,2-30.6c0.5-10.2,0.7-22.4,0.7-35.3c0-30.5-1.2-65.6-2.6-91.6
	c-1.7-33.3-11-77-19.8-93.4c-3.8-7.1-9.5-15.1-14.8-22v295.5l16.8,235.7L506.2,636.6z M397,646.4h6l33.6-48.4v-95.4l-22.1-9.1h-29
	l-22.1,9.1V598L397,646.4z M451.1,582.6l25.8,13.6l-4-56.8l-21.8-11L451.1,582.6L451.1,582.6z M327.1,539.4l-4,56.8l25.8-13.6v-54.2
	L327.1,539.4z M451.1,512.1l20.6,10.4l-9.1-127.4c-5.3,0.6-10.7,1.1-16,1.3c-0.4,0.1-0.7,0.1-1.1,0.1H444c-1.6,0-3.2,0.1-4.8,0.1
	h-78.3c-7.8,0-15.7-0.5-23.6-1.4l-9.1,127.4l20.6-10.4v-14.3c0-2.9,1.8-5.6,4.5-6.7l27.9-11.5c0.9-0.4,1.8-0.5,2.8-0.5h31.9
	c1,0,1.9,0.2,2.8,0.5l27.9,11.5c2.7,1.1,4.5,3.8,4.5,6.7L451.1,512.1L451.1,512.1z M363.4,381.9h74.9V14.7h-74.9V381.9z
	 M337.9,380.6c3.6,0.5,7.3,0.8,10.9,1V15c-95.6,6.2-171.5,85.9-171.5,183.1v0.5c0,67.7,37.5,129.8,96.6,161.6
	c-0.6-9-1.2-17.6-1.6-25.9c-0.5-10.7-0.8-23.5-0.8-37c0-31.1,1.2-66.8,2.6-93.3c1.8-35.7,11.7-81.3,21.5-99.6l0,0
	c9.4-17.5,28.7-39.3,29.5-40.2c2-2.3,5.2-3,8-2c2.8,1.1,4.7,3.8,4.7,6.8L337.9,380.6L337.9,380.6z M452.9,15.1v366.4
	c3.1-0.2,6.1-0.5,9.2-0.9V68.8c0-3,1.9-5.7,4.7-6.8c2.8-1.1,6-0.3,8,2c0.8,0.9,20.1,22.7,29.5,40.2c9.8,18.3,19.6,63.9,21.5,99.6
	c1.4,26.5,2.6,62.3,2.6,93.3c0,13.6-0.2,26.3-0.8,37c-0.4,8.3-1,16.9-1.6,25.9c59.1-31.8,96.6-93.9,96.6-161.6V198
	C622.6,101.5,547.6,22.1,452.9,15.1z"/>
</svg>
