<svg xmlns="http://www.w3.org/2000/svg" width="503.4" height="801" viewBox="0, 0, 503.4, 801"><path d="M252.464 0S16.066 325.908 0 801c0 0 289.34-388.455 373.34-287.655C465.148 623.51 503.4 761.22 503.4 761.22S460.554 268.53 252.464 0z" fill="#000007"/><path d="M153.52 227.467C105.414 338.682 47.89 508.047 29.367 711.477c20.978-25.495 46.768-55.722 75.032-86.308 99.25-107.372 173.808-160.292 227.937-161.76 23.782-.65 44.18 8.394 58.984 26.154 20.96 25.154 39.19 51.566 54.9 77.494-30.05-154.86-88.312-372.625-194.984-527.64-22.203 35.427-59.717 100.204-97.715 188.05z" fill="#C8A850"/><path d="M338.897 322.333L278.43 301.74l-24.635-207.8-24.637 207.8-60.466 20.593 54.774 27.392-8.224 69.353 38.553-65.462 38.55 65.462-8.222-69.353z"/></svg>