<?xml version="1.0" encoding="utf-8"?>
<!-- Generator: Adobe Illustrator 26.5.0, SVG Export Plug-In . SVG Version: 6.00 Build 0)  -->
<svg version="1.1" id="Capa_1" xmlns="http://www.w3.org/2000/svg" xmlns:xlink="http://www.w3.org/1999/xlink" x="0px" y="0px"
	 viewBox="0 0 465.1 465.1" style="enable-background:new 0 0 465.1 465.1;" xml:space="preserve">
<style type="text/css">
	.st0{stroke:#000000;stroke-width:5;stroke-miterlimit:10;}
</style>
<g>
	<path class="st0" d="M156.8,143h37.4v25.9h-14c-4.1,0-7.5,3.4-7.5,7.5s3.4,7.5,7.5,7.5h104.7c4.1,0,7.5-3.4,7.5-7.5
		s-3.4-7.5-7.5-7.5h-14V143h37.4c14.7,0,26.7-12,26.7-26.7V26.7C335,12,323,0,308.3,0H156.8c-14.7,0-26.7,12-26.7,26.7v89.6
		C130.1,131,142,143,156.8,143z M255.9,168.9h-46.8V143h46.8V168.9z M145.1,26.7c0-6.5,5.3-11.7,11.7-11.7h151.5
		c6.5,0,11.7,5.3,11.7,11.7v89.6c0,6.5-5.3,11.7-11.7,11.7H156.8c-6.5,0-11.7-5.3-11.7-11.7V26.7z"/>
	<path class="st0" d="M178.2,281.1H26.7C12,281.1,0,293.1,0,307.8v89.6c0,14.7,12,26.7,26.7,26.7h37.4V450h-14
		c-4.1,0-7.5,3.4-7.5,7.5s3.4,7.5,7.5,7.5h104.7c4.1,0,7.5-3.4,7.5-7.5s-3.4-7.5-7.5-7.5h-14v-25.9h37.4c14.7,0,26.7-12,26.7-26.7
		v-89.6C204.9,293.1,193,281.1,178.2,281.1z M125.9,450H79.1v-25.9h46.8V450z M189.9,397.4c0,6.5-5.3,11.7-11.7,11.7H26.7
		c-6.5,0-11.7-5.3-11.7-11.7v-89.6c0-6.5,5.3-11.7,11.7-11.7h151.5c6.5,0,11.7,5.3,11.7,11.7V397.4z"/>
	<path class="st0" d="M438.3,281.1H286.8c-14.7,0-26.7,12-26.7,26.7v89.6c0,14.7,12,26.7,26.7,26.7h37.4V450h-14
		c-4.1,0-7.5,3.4-7.5,7.5s3.4,7.5,7.5,7.5h104.7c4.1,0,7.5-3.4,7.5-7.5s-3.4-7.5-7.5-7.5h-14v-25.9h37.4c14.7,0,26.7-12,26.7-26.7
		v-89.6C465.1,293.1,453.1,281.1,438.3,281.1z M386,450h-46.8v-25.9H386V450z M450.1,397.4c0,6.5-5.3,11.7-11.7,11.7H286.8
		c-6.5,0-11.7-5.3-11.7-11.7v-89.6c0-6.5,5.3-11.7,11.7-11.7h151.5c6.5,0,11.7,5.3,11.7,11.7L450.1,397.4L450.1,397.4z"/>
	<path class="st0" d="M355.1,258.6c0,4.1,3.4,7.5,7.5,7.5s7.5-3.4,7.5-7.5v-26.1c0-4.1-3.4-7.5-7.5-7.5H240v-18.6
		c0-4.1-3.4-7.5-7.5-7.5c-4.1,0-7.5,3.4-7.5,7.5V225H102.5c-4.1,0-7.5,3.4-7.5,7.5v26.1c0,4.1,3.4,7.5,7.5,7.5s7.5-3.4,7.5-7.5V240
		h245.1V258.6z"/>
</g>
</svg>
